<svg width="500" height="500" viewBox="0 0 500 500" fill="none" xmlns="http://www.w3.org/2000/svg">
  <rect x="4" y="4" width="492" height="492" fill="black" />
  <rect x="4" y="4" width="492" height="492" stroke="black" stroke-width="8" />
  <path
    d="M27 6H65C76.0457 6 85 14.9543 85 26V64C85 75.0457 76.0457 84 65 84H27C15.9543 84 7 75.0457 7 64V26C7 14.9543 15.9543 6 27 6Z"
    fill="#E50000" stroke="black" stroke-width="4" />
  <path
    d="M109 6H147C158.046 6 167 14.9543 167 26V64C167 75.0457 158.046 84 147 84H109C97.9543 84 89 75.0457 89 64V26C89 14.9543 97.9543 6 109 6Z"
    fill="#232323" stroke="black" stroke-width="4" />
  <path
    d="M353 6H391C402.046 6 411 14.9543 411 26V64C411 75.0457 402.046 84 391 84H353C341.954 84 333 75.0457 333 64V26C333 14.9543 341.954 6 353 6Z"
    fill="#232323" stroke="black" stroke-width="4" />
  <path
    d="M435 6H473C484.046 6 493 14.9543 493 26V64C493 75.0457 484.046 84 473 84H435C423.954 84 415 75.0457 415 64V26C415 14.9543 423.954 6 435 6Z"
    fill="#E50000" stroke="black" stroke-width="4" />
  <path
    d="M191 6H229C240.046 6 249 14.9543 249 26V64C249 75.0457 240.046 84 229 84H191C179.954 84 171 75.0457 171 64V26C171 14.9543 179.954 6 191 6Z"
    fill="#232323" stroke="black" stroke-width="4" />
  <path
    d="M273 6H311C322.046 6 331 14.9543 331 26V64C331 75.0457 322.046 84 311 84H273C261.954 84 253 75.0457 253 64V26C253 14.9543 261.954 6 273 6Z"
    fill="#232323" stroke="black" stroke-width="4" />
  <path
    d="M27 88H65C76.0457 88 85 96.9543 85 108V146C85 157.046 76.0457 166 65 166H27C15.9543 166 7 157.046 7 146V108C7 96.9543 15.9543 88 27 88Z"
    fill="#E50000" stroke="black" stroke-width="4" />
  <path
    d="M109 88H147C158.046 88 167 96.9543 167 108V146C167 157.046 158.046 166 147 166H109C97.9543 166 89 157.046 89 146V108C89 96.9543 97.9543 88 109 88Z"
    fill="#E50000" stroke="black" stroke-width="4" />
  <path
    d="M353 88H391C402.046 88 411 96.9543 411 108V146C411 157.046 402.046 166 391 166H353C341.954 166 333 157.046 333 146V108C333 96.9543 341.954 88 353 88Z"
    fill="#E50000" stroke="black" stroke-width="4" />
  <path
    d="M435 88H473C484.046 88 493 96.9543 493 108V146C493 157.046 484.046 166 473 166H435C423.954 166 415 157.046 415 146V108C415 96.9543 423.954 88 435 88Z"
    fill="#E50000" stroke="black" stroke-width="4" />
  <path
    d="M191 88H229C240.046 88 249 96.9543 249 108V146C249 157.046 240.046 166 229 166H191C179.954 166 171 157.046 171 146V108C171 96.9543 179.954 88 191 88Z"
    fill="#232323" stroke="black" stroke-width="4" />
  <path
    d="M273 88H311C322.046 88 331 96.9543 331 108V146C331 157.046 322.046 166 311 166H273C261.954 166 253 157.046 253 146V108C253 96.9543 261.954 88 273 88Z"
    fill="#232323" stroke="black" stroke-width="4" />
  <path
    d="M27 170H65C76.0457 170 85 178.954 85 190V228C85 239.046 76.0457 248 65 248H27C15.9543 248 7 239.046 7 228V190C7 178.954 15.9543 170 27 170Z"
    fill="#E50000" stroke="black" stroke-width="4" />
  <path
    d="M109 170H147C158.046 170 167 178.954 167 190V228C167 239.046 158.046 248 147 248H109C97.9543 248 89 239.046 89 228V190C89 178.954 97.9543 170 109 170Z"
    fill="#E50000" stroke="black" stroke-width="4" />
  <path
    d="M353 170H391C402.046 170 411 178.954 411 190V228C411 239.046 402.046 248 391 248H353C341.954 248 333 239.046 333 228V190C333 178.954 341.954 170 353 170Z"
    fill="#E50000" stroke="black" stroke-width="4" />
  <path
    d="M435 170H473C484.046 170 493 178.954 493 190V228C493 239.046 484.046 248 473 248H435C423.954 248 415 239.046 415 228V190C415 178.954 423.954 170 435 170Z"
    fill="#E50000" stroke="black" stroke-width="4" />
  <path
    d="M191 170H229C240.046 170 249 178.954 249 190V228C249 239.046 240.046 248 229 248H191C179.954 248 171 239.046 171 228V190C171 178.954 179.954 170 191 170Z"
    fill="#E50000" stroke="black" stroke-width="4" />
  <path
    d="M273 170H311C322.046 170 331 178.954 331 190V228C331 239.046 322.046 248 311 248H273C261.954 248 253 239.046 253 228V190C253 178.954 261.954 170 273 170Z"
    fill="#E50000" stroke="black" stroke-width="4" />
  <path
    d="M27 252H65C76.0457 252 85 260.954 85 272V310C85 321.046 76.0457 330 65 330H27C15.9543 330 7 321.046 7 310V272C7 260.954 15.9543 252 27 252Z"
    fill="#E50000" stroke="black" stroke-width="4" />
  <path
    d="M109 252H147C158.046 252 167 260.954 167 272V310C167 321.046 158.046 330 147 330H109C97.9543 330 89 321.046 89 310V272C89 260.954 97.9543 252 109 252Z"
    fill="#232323" stroke="black" stroke-width="4" />
  <path
    d="M353 252H391C402.046 252 411 260.954 411 272V310C411 321.046 402.046 330 391 330H353C341.954 330 333 321.046 333 310V272C333 260.954 341.954 252 353 252Z"
    fill="#232323" stroke="black" stroke-width="4" />
  <path
    d="M435 252H473C484.046 252 493 260.954 493 272V310C493 321.046 484.046 330 473 330H435C423.954 330 415 321.046 415 310V272C415 260.954 423.954 252 435 252Z"
    fill="#E50000" stroke="black" stroke-width="4" />
  <path
    d="M191 252H229C240.046 252 249 260.954 249 272V310C249 321.046 240.046 330 229 330H191C179.954 330 171 321.046 171 310V272C171 260.954 179.954 252 191 252Z"
    fill="#E50000" stroke="black" stroke-width="4" />
  <path
    d="M273 252H311C322.046 252 331 260.954 331 272V310C331 321.046 322.046 330 311 330H273C261.954 330 253 321.046 253 310V272C253 260.954 261.954 252 273 252Z"
    fill="#E50000" stroke="black" stroke-width="4" />
  <path
    d="M27 334H65C76.0457 334 85 342.954 85 354V392C85 403.046 76.0457 412 65 412H27C15.9543 412 7 403.046 7 392V354C7 342.954 15.9543 334 27 334Z"
    fill="#E50000" stroke="black" stroke-width="4" />
  <path
    d="M109 334H147C158.046 334 167 342.954 167 354V392C167 403.046 158.046 412 147 412H109C97.9543 412 89 403.046 89 392V354C89 342.954 97.9543 334 109 334Z"
    fill="#232323" stroke="black" stroke-width="4" />
  <path
    d="M353 334H391C402.046 334 411 342.954 411 354V392C411 403.046 402.046 412 391 412H353C341.954 412 333 403.046 333 392V354C333 342.954 341.954 334 353 334Z"
    fill="#232323" stroke="black" stroke-width="4" />
  <path
    d="M435 334H473C484.046 334 493 342.954 493 354V392C493 403.046 484.046 412 473 412H435C423.954 412 415 403.046 415 392V354C415 342.954 423.954 334 435 334Z"
    fill="#E50000" stroke="black" stroke-width="4" />
  <path
    d="M191 334H229C240.046 334 249 342.954 249 354V392C249 403.046 240.046 412 229 412H191C179.954 412 171 403.046 171 392V354C171 342.954 179.954 334 191 334Z"
    fill="#232323" stroke="black" stroke-width="4" />
  <path
    d="M273 334H311C322.046 334 331 342.954 331 354V392C331 403.046 322.046 412 311 412H273C261.954 412 253 403.046 253 392V354C253 342.954 261.954 334 273 334Z"
    fill="#232323" stroke="black" stroke-width="4" />
  <path
    d="M27 416H65C76.0457 416 85 424.954 85 436V474C85 485.046 76.0457 494 65 494H27C15.9543 494 7 485.046 7 474V436C7 424.954 15.9543 416 27 416Z"
    fill="#E50000" stroke="black" stroke-width="4" />
  <path
    d="M109 416H147C158.046 416 167 424.954 167 436V474C167 485.046 158.046 494 147 494H109C97.9543 494 89 485.046 89 474V436C89 424.954 97.9543 416 109 416Z"
    fill="#232323" stroke="black" stroke-width="4" />
  <path
    d="M353 416H391C402.046 416 411 424.954 411 436V474C411 485.046 402.046 494 391 494H353C341.954 494 333 485.046 333 474V436C333 424.954 341.954 416 353 416Z"
    fill="#232323" stroke="black" stroke-width="4" />
  <path
    d="M435 416H473C484.046 416 493 424.954 493 436V474C493 485.046 484.046 494 473 494H435C423.954 494 415 485.046 415 474V436C415 424.954 423.954 416 435 416Z"
    fill="#E50000" stroke="black" stroke-width="4" />
  <path
    d="M191 416H229C240.046 416 249 424.954 249 436V474C249 485.046 240.046 494 229 494H191C179.954 494 171 485.046 171 474V436C171 424.954 179.954 416 191 416Z"
    fill="#232323" stroke="black" stroke-width="4" />
  <path
    d="M273 416H311C322.046 416 331 424.954 331 436V474C331 485.046 322.046 494 311 494H273C261.954 494 253 485.046 253 474V436C253 424.954 261.954 416 273 416Z"
    fill="#232323" stroke="black" stroke-width="4" />
</svg>